<svg height="124" viewBox="-.5 -.5 112 124" width="112" xmlns="http://www.w3.org/2000/svg"><g fill="#fff" pointer-events="all"><path d="m54.06 11c-24.72 10.72-36.06 39.39-25.3 64.05 10.75 24.65 39.51 35.95 64.24 25.23-19.39-3.34-35.79-16.18-43.64-34.17-7.84-17.98-6.08-38.7 4.7-55.11z" transform="matrix(.90630779 -.42261826 .42261826 .90630779 -20.579796 29.170539)"/><path d="m45.5 31 8-2 2-8 2 8 8 2-8 2-2 8-2-8z"/><path d="m62 61 6-1.5 1.5-6 1.5 6 6 1.5-6 1.5-1.5 6-1.5-6z"/><path d="m77 41 8-2 2-8 2 8 8 2-8 2-2 8-2-8z"/></g></svg>