<svg enable-background="new 0 0 512 512" viewBox="0 0 512 512" xmlns="http://www.w3.org/2000/svg"><path d="m492 236h-347.738c-11.046 0-20 8.954-20 20s8.954 20 20 20h347.738c11.046 0 20-8.954 20-20s-8.954-20-20-20z"/><path d="m492 86h-347.738c-11.046 0-20 8.954-20 20s8.954 20 20 20h347.738c11.046 0 20-8.954 20-20s-8.954-20-20-20z"/><path d="m492 386h-347.738c-11.046 0-20 8.954-20 20s8.954 20 20 20h347.738c11.046 0 20-8.954 20-20s-8.954-20-20-20z"/><circle cx="27" cy="106" r="27"/><circle cx="27" cy="256" r="27"/><circle cx="27" cy="406" r="27"/></svg>