<svg height="201" viewBox="-.5 -.5 201 201" width="201" xmlns="http://www.w3.org/2000/svg"><g fill="#000" pointer-events="all"><ellipse cx="100" cy="100" rx="50" ry="50"/><path d="m80 10 40 10-40 10z" transform="matrix(0 -1 1 0 80 120)"/><path d="m80 170 40 10-40 10z" transform="matrix(0 1 -1 0 280 80)"/><path d="m160 90 40 10-40 10z"/><path d="m0 90 40 10-40 10z" transform="matrix(-1 0 0 -1 40 200)"/><path d="m137 147 40 10-40 10z" transform="matrix(.70710678 .70710678 -.70710678 .70710678 157 -65.031529)"/><path d="m23 147 40 10-40 10z" transform="matrix(-.70710678 .70710678 -.70710678 -.70710678 184.421356 237.610173)"/><path d="m23 33 40 10-40 10z" transform="matrix(-.70710678 -.70710678 .70710678 -.70710678 43 103.811183)"/><path d="m137 33 40 10-40 10z" transform="matrix(.70710678 -.70710678 .70710678 .70710678 15.578644 123.610173)"/></g></svg>