<svg width="28" height="28" fill="none" xmlns="http://www.w3.org/2000/svg">
  <rect width="28" height="28" rx="14" fill="#FF5A5F" />
  <g clip-path="url(#a)">
    <path
      d="M14.001 18.183c-.902-1.131-1.432-2.122-1.609-2.971-.175-.685-.106-1.232.194-1.643.318-.474.792-.704 1.414-.704.622 0 1.096.23 1.414.708.297.407.372.955.19 1.644-.194.865-.723 1.856-1.608 2.972l.005-.006Zm6.4.76c-.123.831-.689 1.52-1.466 1.856-1.502.653-2.989-.389-4.261-1.803 2.104-2.634 2.493-4.685 1.59-6.012-.53-.76-1.289-1.13-2.263-1.13-1.963 0-3.042 1.66-2.618 3.588.247 1.043.901 2.229 1.945 3.555-.654.723-1.274 1.237-1.822 1.555-.424.23-.83.372-1.218.406-1.786.266-3.186-1.467-2.55-3.253.088-.23.263-.654.563-1.308l.017-.035c.976-2.119 2.161-4.527 3.523-7.197l.035-.088.387-.744c.3-.548.423-.793.9-1.095.231-.14.514-.21.831-.21.636 0 1.132.372 1.344.671.106.16.23.372.388.636l.372.726.054.106c1.36 2.669 2.547 5.072 3.52 7.196l.016.016.356.814.212.509c.162.409.196.815.142 1.239l.004.002Zm.814-1.593c-.124-.389-.337-.847-.6-1.396v-.02a235.28 235.28 0 0 0-3.538-7.23l-.074-.108C16.212 6.974 15.646 6 14.001 6c-1.627 0-2.317 1.13-3.023 2.599l-.054.106a221.31 221.31 0 0 0-3.536 7.232v.035l-.372.813c-.14.336-.212.512-.23.565-.9 2.477.955 4.65 3.201 4.65.018 0 .088 0 .177-.018h.248c1.166-.142 2.37-.883 3.59-2.211 1.218 1.326 2.422 2.069 3.587 2.211h.248c.089.018.16.018.177.018 2.246.002 4.101-2.174 3.201-4.65Z"
      fill="#fff" />
  </g>
  <defs>
    <clipPath id="a">
      <path fill="#fff" transform="translate(6 6)" d="M0 0h16v16H0z" />
    </clipPath>
  </defs>
</svg>
