<svg width="32" height="32" fill="none" xmlns="http://www.w3.org/2000/svg">
  <g clip-path="url(#a)">
    <rect width="32" height="32" rx="16" fill="url(#b)"/>
    <path fill-rule="evenodd" clip-rule="evenodd" d="M12.755 30.136c.051-4.308.484-8.167 1.147-10.985.355-1.509.766-2.677 1.196-3.45.466-.838.801-.951.902-.951.1 0 .436.113.902.95.43.774.841 1.942 1.196 3.451.663 2.818 1.096 6.677 1.147 10.985.508-.117 1.007-.26 1.494-.428-.074-4.224-.508-8.042-1.18-10.9-.327-1.389-.718-2.584-1.169-3.497 1.498.715 2.887 2.097 4.035 4.048 1.257 2.138 2.179 4.894 2.589 8 .47-.374.916-.775 1.335-1.203-.488-2.878-1.402-5.467-2.631-7.557-.652-1.107-1.402-2.09-2.236-2.901a16.296 16.296 0 0 1 7.851 6.01c.236-.55.439-1.117.606-1.699C26.688 15.892 21.653 13.25 16 13.25c-5.653 0-10.688 2.642-13.939 6.759.167.582.37 1.15.606 1.7a16.295 16.295 0 0 1 7.85-6.011c-.833.811-1.583 1.794-2.235 2.9-1.23 2.091-2.143 4.68-2.631 7.558.42.428.866.83 1.335 1.203.41-3.106 1.332-5.862 2.59-8 1.147-1.95 2.536-3.333 4.034-4.048-.451.913-.842 2.108-1.168 3.496-.673 2.86-1.107 6.677-1.18 10.901.486.168.984.311 1.493.428Zm-.002 1.534a15.857 15.857 0 0 1-1.502-.387c.017 4.623.465 8.825 1.19 11.91.327 1.388.718 2.583 1.169 3.496-1.498-.715-2.887-2.097-4.035-4.048C7.845 39.698 6.75 35.584 6.75 31c0-.643.022-1.276.063-1.899a16.074 16.074 0 0 1-1.41-1.113c-.1.98-.153 1.986-.153 3.012 0 4.804 1.144 9.19 3.032 12.401.652 1.107 1.402 2.09 2.236 2.901C4.24 44.052-.25 38.051-.25 31c0-2.814.715-5.46 1.974-7.768a15.914 15.914 0 0 1-.741-1.699A17.667 17.667 0 0 0-1.75 31c0 9.803 7.947 17.75 17.75 17.75S33.75 40.803 33.75 31c0-3.48-1.002-6.727-2.733-9.467-.214.583-.462 1.15-.74 1.699A16.178 16.178 0 0 1 32.25 31c0 7.05-4.49 13.053-10.768 15.302.834-.811 1.584-1.794 2.236-2.9C25.605 40.19 26.75 35.803 26.75 31c0-1.026-.052-2.032-.152-3.012-.45.396-.92.768-1.411 1.113.041.623.063 1.256.063 1.899 0 4.584-1.095 8.698-2.825 11.64-1.148 1.952-2.537 3.334-4.035 4.049.451-.913.842-2.108 1.168-3.496.726-3.085 1.174-7.287 1.192-11.91-.492.153-.993.282-1.503.387-.04 4.386-.476 8.319-1.149 11.179-.355 1.509-.766 2.677-1.196 3.45-.466.838-.801.951-.902.951-.1 0-.436-.113-.902-.95-.43-.774-.841-1.942-1.196-3.451-.673-2.86-1.108-6.793-1.149-11.179Z" fill="url(#c)"/>
    <path fill-rule="evenodd" clip-rule="evenodd" d="M19.894 5.553a1 1 0 0 1-.447 1.342l-9.341 3.552c-.494.247.246.494 0 0-.247-.494-.494.247 0 0l8.447-5.341a1 1 0 0 1 1.341.447Z" fill="url(#d)"/>
  </g>
  <defs>
    <linearGradient id="b" x1="16" y1="0" x2="16" y2="33" gradientUnits="userSpaceOnUse">
      <stop stop-color="#00172C"/>
      <stop offset=".803" stop-color="#5900EB"/>
    </linearGradient>
    <linearGradient id="d" x1="19" y1="6" x2="11.5" y2="10" gradientUnits="userSpaceOnUse">
      <stop stop-color="#9969E8"/>
      <stop offset="1" stop-color="#FFA0D2" stop-opacity=".32"/>
    </linearGradient>
    <radialGradient id="c" cx="0" cy="0" r="1" gradientUnits="userSpaceOnUse" gradientTransform="matrix(0 35.75 -57.5 0 16 13)">
      <stop offset=".14" stop-color="#fff"/>
      <stop offset=".514" stop-color="#fff" stop-opacity="0"/>
    </radialGradient>
    <clipPath id="a">
      <rect width="32" height="32" rx="16" fill="#fff"/>
    </clipPath>
  </defs>
</svg>
