<svg width="28" height="28" fill="none" xmlns="http://www.w3.org/2000/svg">
  <g clip-path="url(#a)">
    <rect width="28" height="28" rx="14" fill="#fff" />
    <g clip-path="url(#b)">
      <path
        d="M15.61 5.04A9.79 9.79 0 0 0 14 4.901c-.793 0-1.47.113-1.61.139-.08.014-.111-.064-.05-.11.056-.041 1.66-1.262 1.66-1.262l1.658 1.262c.063.046.032.124-.048.11Zm-2.771 7.926s-.085.03-.108.105c.336.258.568.846 1.269.846s.933-.588 1.268-.846c-.022-.075-.107-.105-.107-.105s-.439.104-1.161.104-1.162-.104-1.162-.104ZM14 11.977c-.195 0-.237-.073-.37-.073-.127.001-.372.102-.426.194a.206.206 0 0 0 .055.127c.284.042.412.2.742.2.329 0 .456-.158.74-.2a.21.21 0 0 0 .056-.127c-.053-.092-.3-.193-.426-.194-.133 0-.177.073-.371.073Zm15.982 3.027c-.02.38-.054.76-.1 1.137-1.813.3-2.46-1.314-4.317-1.233.111.394.201.795.27 1.204 1.531 0 2.148 1.43 3.851 1.22-.09.437-.197.869-.322 1.294-1.346.132-1.82-1.206-3.379-1.169.013.222.02.446.02.672l-.006.374 3.026 1.155c-.159.428-.335.85-.529 1.264-.91-.05-1.223-1.217-2.607-1.125-.042.298-.094.594-.158.887 1.202-.084 1.461 1.022 2.322 1.112-.219.4-.455.79-.707 1.17-.51-.274-.952-1.098-1.92-1.15.1-.306.187-.617.26-.932-.858 0-1.839-.334-2.661-1.083.266-1.519-2.09-3.065-2.09-4.177 0-1.208.61-1.876.61-3.505 0-1.208-.586-2.519-1.471-3.415a2.954 2.954 0 0 0-.549-.44c.813 1.005 1.438 2.198 1.438 3.58 0 1.534-.714 2.343-.714 3.758s2.07 2.64 2.07 4.099c0 .574-.183 1.135-.788 2.236.93.928 2.14 1.435 2.92 1.435.254 0 .39-.078.481-.277.078-.172.152-.346.222-.521.841.033 1.227.797 1.692 1.102a16.04 16.04 0 0 1-.805.995c-.312-.345-.731-.927-1.345-1.089-.11.214-.227.424-.349.631.529.144.89.678 1.17 1.029-.301.312-.616.613-.942.9-.205-.318-.523-.721-.88-.939a11.2 11.2 0 0 1-.41.522c.303.205.57.575.745.876-.377.303-.768.59-1.172.86-.2-1.626-2.419-2.74-1.82-4.626-.197.332-.431.748-.431 1.248 0 1.366 1.454 2.45 1.57 3.806-.302.18-.61.35-.924.51-.052-1.49-1.592-3.123-1.592-4.347 0-1.366 1.79-2.738 1.79-4.351 0-1.614-2.066-2.731-2.066-4.148 0-1.416.879-2.231.879-4.046 0-1.33-.632-2.675-1.608-3.535a2.654 2.654 0 0 0-.547-.38c.92 1.104 1.453 2.106 1.453 3.625 0 1.707-1.006 2.655-1.006 4.326 0 1.671 2.027 2.6 2.027 4.159 0 1.557-1.886 2.87-1.886 4.471 0 1.456 1.662 2.91 1.687 4.637-.365.159-.735.303-1.11.434.21-1.745-1.66-3.545-1.66-4.97 0-1.556 1.956-2.894 1.956-4.573 0-1.68-1.989-2.46-1.989-4.184 0-1.722 1.22-2.676 1.22-4.58A4.64 4.64 0 0 0 17 7.292l-.068-.051c-.101-.075-.184.015-.113.104.758.946 1.163 1.903 1.163 3.319 0 1.741-1.402 3.156-1.402 4.843 0 1.992 1.882 2.56 1.882 4.194s-2.018 2.94-2.018 4.674c0 1.608 1.91 3.393 1.582 5.249-.385.1-.774.186-1.165.256.358-2.311-1.515-3.97-1.515-5.483 0-1.637 2.09-3.096 2.09-4.695 0-1.51-1.5-2.002-1.698-3.546-.027-.21-.196-.367-.43-.328-.304.056-.694.256-1.308.256-.614 0-1.004-.201-1.31-.256-.232-.038-.401.118-.428.328-.197 1.544-1.698 2.036-1.698 3.545 0 1.6 2.09 3.059 2.09 4.696 0 1.512-1.873 3.172-1.515 5.483a16.17 16.17 0 0 1-1.166-.256c-.328-1.856 1.583-3.64 1.583-5.249 0-1.734-2.019-3.04-2.019-4.674 0-1.633 1.883-2.202 1.883-4.194 0-1.687-1.402-3.101-1.402-4.843 0-1.416.405-2.373 1.163-3.319.07-.089-.012-.179-.113-.104l-.068.051a4.634 4.634 0 0 0-1.8 3.643c0 1.904 1.22 2.858 1.22 4.58 0 1.724-1.99 2.504-1.99 4.184 0 1.679 1.957 3.017 1.957 4.574 0 1.424-1.871 3.224-1.66 4.969-.375-.13-.745-.276-1.11-.434.025-1.728 1.686-3.182 1.686-4.637 0-1.6-1.885-2.914-1.885-4.472 0-1.558 2.026-2.487 2.026-4.159 0-1.67-1.006-2.618-1.006-4.325 0-1.52.533-2.52 1.453-3.625a2.616 2.616 0 0 0-.547.38c-.975.86-1.607 2.205-1.607 3.535 0 1.815.879 2.63.879 4.046 0 1.417-2.065 2.534-2.065 4.148 0 1.613 1.79 2.985 1.79 4.351 0 1.225-1.542 2.857-1.593 4.348-.314-.16-.622-.33-.924-.511.116-1.357 1.57-2.44 1.57-3.806 0-.5-.234-.916-.43-1.248.597 1.886-1.622 3-1.821 4.625a16.157 16.157 0 0 1-1.173-.859c.174-.301.441-.671.745-.877a10.55 10.55 0 0 1-.41-.521c-.357.218-.676.621-.88.939-.326-.288-.64-.588-.942-.9.28-.352.641-.885 1.17-1.03a12.068 12.068 0 0 1-.348-.63c-.614.162-1.034.743-1.346 1.09-.281-.322-.55-.654-.805-.996.466-.305.851-1.07 1.692-1.102.07.175.145.349.222.521.091.2.228.276.48.276.782 0 1.992-.506 2.922-1.434-.605-1.101-.789-1.662-.789-2.236 0-1.459 2.07-2.683 2.07-4.099 0-1.415-.713-2.225-.713-3.758 0-1.382.624-2.575 1.437-3.581-.2.125-.384.273-.548.441-.885.897-1.472 2.207-1.472 3.415 0 1.629.611 2.297.611 3.505 0 1.112-2.357 2.658-2.09 4.177-.823.749-1.804 1.083-2.662 1.083.074.314.16.625.26.933-.967.051-1.41.875-1.92 1.148-.252-.38-.488-.77-.707-1.17.86-.089 1.12-1.195 2.322-1.111-.063-.293-.116-.59-.158-.887C.726 19.703.413 20.87-.497 20.92c-.194-.413-.37-.835-.529-1.264l3.027-1.154-.006-.374c0-.226.006-.45.019-.672-1.559-.037-2.033 1.301-3.38 1.169a16.145 16.145 0 0 1-.32-1.295c1.701.211 2.318-1.22 3.85-1.219.068-.406.158-.808.27-1.204-1.856-.081-2.504 1.533-4.316 1.233a15.652 15.652 0 0 1-.1-1.137c2.105.235 2.895-1.496 4.812-1.284.18-.456.39-.9.628-1.329C1.054 11.967.238 13.977-2 13.67c.242-8.628 7.313-15.55 16-15.55 8.688 0 15.758 6.922 16 15.552-2.238.309-3.054-1.701-5.458-1.28.236.427.447.87.628 1.33 1.916-.213 2.706 1.519 4.812 1.283ZM7.12 8.291c-1.179-.482-2.606-.37-3.824.412-.19-1.134-.804-2.141-1.68-2.749-.121-.084-.247-.004-.236.136.185 2.396-1.215 4.476-2.938 6.304 1.775.534 3.286-1.752 5.589-.954A12.049 12.049 0 0 1 7.12 8.29ZM14 6.84c-1.486 0-2.73.841-3.056 1.927-.026.083.008.137.104.094a2.19 2.19 0 0 1 .902-.178c.606 0 1.14.223 1.456.61.14.46.152 1.128-.006 1.51-.25-.057-.34-.25-.583-.25-.244 0-.433.171-.847.171-.413 0-.46-.195-.733-.195-.32 0-.378.33-.378.7 0 1.656 1.522 3.934 3.14 3.934 1.619 0 3.14-2.278 3.14-3.933 0-.372-.076-.69-.41-.733-.166.12-.32.227-.7.227-.414 0-.528-.17-.771-.17-.294 0-.265.62-.614.654-.233-.56-.244-1.276-.05-1.915.316-.387.85-.61 1.455-.61.33 0 .637.058.901.178.097.043.13-.011.105-.094-.325-1.086-1.57-1.926-3.055-1.926Zm2.366 2.376c-.357 0-.774.11-1.037.402a.403.403 0 0 0 .011.277c.646-.222 1.216-.23 1.491.078.147-.134.194-.254.194-.393 0-.215-.219-.364-.66-.364Zm-5.197.757c.311-.312.968-.299 1.65-.047.03-.34-.578-.71-1.185-.71-.44 0-.66.148-.66.364 0 .14.048.26.194.393Zm10.24-5.604c-1.173.083-2.192.486-3.017 1.157.35-.992.795-1.86 1.358-2.702-1.494.159-2.742.705-3.654 1.639l-.713-1.87 1.583-1.398-2.12-.15L14-.926l-.847 1.972-2.12.15 1.584 1.398-.713 1.87c-.912-.934-2.161-1.48-3.654-1.639a11.9 11.9 0 0 1 1.357 2.702C8.783 4.856 7.764 4.453 6.59 4.37c.704.904 1.327 1.869 1.79 2.906.052.117.164.155.285.095a11.95 11.95 0 0 1 5.333-1.248c1.916 0 3.727.45 5.335 1.248.12.06.233.022.285-.095.462-1.037 1.086-2.002 1.79-2.906Zm2.562 7.07c2.3-.797 3.812 1.488 5.587.955-1.722-1.828-3.122-3.908-2.937-6.304.011-.14-.115-.22-.236-.136-.876.608-1.491 1.615-1.68 2.749-1.219-.783-2.645-.894-3.824-.412a12.057 12.057 0 0 1 3.09 3.149Z"
        fill="#006241" />
    </g>
  </g>
  <defs>
    <clipPath id="a">
      <rect width="28" height="28" rx="14" fill="#fff" />
    </clipPath>
    <clipPath id="b">
      <path fill="#fff" transform="translate(-2 -2)" d="M0 0h32v32H0z" />
    </clipPath>
  </defs>
</svg>
